<?xml version="1.0" encoding="UTF-8" standalone="no"?>
<!DOCTYPE svg PUBLIC "-//W3C//DTD SVG 1.1//EN"
 "http://www.w3.org/Graphics/SVG/1.1/DTD/svg11.dtd">
<!-- Generated by graphviz version 2.40.1 (20161225.0304)
 -->
<!-- Title: %0 Pages: 1 -->
<svg width="359pt" height="1016pt"
 viewBox="0.00 0.00 359.00 1016.00" xmlns="http://www.w3.org/2000/svg" xmlns:xlink="http://www.w3.org/1999/xlink">
<g id="graph0" class="graph" transform="scale(1 1) rotate(0) translate(144 872)">
<title>%0</title>
<polygon fill="#ffffff" stroke="transparent" points="-144,144 -144,-872 215,-872 215,144 -144,144"/>
<!-- glucoses -->
<g id="node1" class="node">
<title>glucoses</title>
<polygon fill="#4477c9" stroke="transparent" points="0,0 0,-118 71,-118 71,0 0,0"/>
<polygon fill="#add8e6" stroke="transparent" points=".5,-100 .5,-118 71.5,-118 71.5,-100 .5,-100"/>
<polygon fill="none" stroke="#000000" points=".5,-100 .5,-118 71.5,-118 71.5,-100 .5,-100"/>
<text text-anchor="start" x="18.2543" y="-106.9" font-family="Times,serif" font-weight="bold" font-style="italic" font-size="9.00" fill="#000000"> glucoses </text>
<polygon fill="none" stroke="#000000" points=".5,-80 .5,-100 71.5,-100 71.5,-80 .5,-80"/>
<text text-anchor="start" x="5.1341" y="-86.9" font-family="Times,serif" font-size="9.00" fill="#000000">glucose: Number</text>
<polygon fill="none" stroke="#000000" points=".5,-60 .5,-80 71.5,-80 71.5,-60 .5,-60"/>
<text text-anchor="start" x="5.5" y="-66.9" font-family="Times,serif" font-size="9.00" fill="#000000">date: Date</text>
<polygon fill="none" stroke="#000000" points=".5,-40 .5,-60 71.5,-60 71.5,-40 .5,-40"/>
<text text-anchor="start" x="5.5" y="-46.9" font-family="Times,serif" font-size="9.00" fill="#000000">userId: String</text>
<polygon fill="none" stroke="#000000" points=".5,-20 .5,-40 71.5,-40 71.5,-20 .5,-20"/>
<text text-anchor="start" x="5.5" y="-26.9" font-family="Times,serif" font-size="9.00" fill="#000000">_id: ObjectID</text>
<polygon fill="none" stroke="#000000" points=".5,0 .5,-20 71.5,-20 71.5,0 .5,0"/>
<text text-anchor="start" x="5.5" y="-6.9" font-family="Times,serif" font-size="9.00" fill="#000000">__v: Number</text>
</g>
<!-- headaches -->
<g id="node2" class="node">
<title>headaches</title>
<polygon fill="#4477c9" stroke="transparent" points=".5,-190 .5,-328 70.5,-328 70.5,-190 .5,-190"/>
<polygon fill="#add8e6" stroke="transparent" points=".5,-310 .5,-328 70.5,-328 70.5,-310 .5,-310"/>
<polygon fill="none" stroke="#000000" points=".5,-310 .5,-328 70.5,-328 70.5,-310 .5,-310"/>
<text text-anchor="start" x="14.7622" y="-316.9" font-family="Times,serif" font-weight="bold" font-style="italic" font-size="9.00" fill="#000000"> headaches </text>
<polygon fill="none" stroke="#000000" points=".5,-290 .5,-310 70.5,-310 70.5,-290 .5,-290"/>
<text text-anchor="start" x="5.5" y="-296.9" font-family="Times,serif" font-size="9.00" fill="#000000">level: Number</text>
<polygon fill="none" stroke="#000000" points=".5,-270 .5,-290 70.5,-290 70.5,-270 .5,-270"/>
<text text-anchor="start" x="5.377" y="-276.9" font-family="Times,serif" font-size="9.00" fill="#000000">comment: String</text>
<polygon fill="none" stroke="#000000" points=".5,-250 .5,-270 70.5,-270 70.5,-250 .5,-250"/>
<text text-anchor="start" x="5.5" y="-256.9" font-family="Times,serif" font-size="9.00" fill="#000000">date: Date</text>
<polygon fill="none" stroke="#000000" points=".5,-230 .5,-250 70.5,-250 70.5,-230 .5,-230"/>
<text text-anchor="start" x="5.5" y="-236.9" font-family="Times,serif" font-size="9.00" fill="#000000">userId: String</text>
<polygon fill="none" stroke="#000000" points=".5,-210 .5,-230 70.5,-230 70.5,-210 .5,-210"/>
<text text-anchor="start" x="5.5" y="-216.9" font-family="Times,serif" font-size="9.00" fill="#000000">_id: ObjectID</text>
<polygon fill="none" stroke="#000000" points=".5,-190 .5,-210 70.5,-210 70.5,-190 .5,-190"/>
<text text-anchor="start" x="5.5" y="-196.9" font-family="Times,serif" font-size="9.00" fill="#000000">__v: Number</text>
</g>
<!-- pulses -->
<g id="node3" class="node">
<title>pulses</title>
<polygon fill="#4477c9" stroke="transparent" points="4,-400 4,-518 67,-518 67,-400 4,-400"/>
<polygon fill="#add8e6" stroke="transparent" points="4.5,-500 4.5,-518 67.5,-518 67.5,-500 4.5,-500"/>
<polygon fill="none" stroke="#000000" points="4.5,-500 4.5,-518 67.5,-518 67.5,-500 4.5,-500"/>
<text text-anchor="start" x="22.5018" y="-506.9" font-family="Times,serif" font-weight="bold" font-style="italic" font-size="9.00" fill="#000000"> pulses </text>
<polygon fill="none" stroke="#000000" points="4.5,-480 4.5,-500 67.5,-500 67.5,-480 4.5,-480"/>
<text text-anchor="start" x="9.3816" y="-486.9" font-family="Times,serif" font-size="9.00" fill="#000000">pulse: Number</text>
<polygon fill="none" stroke="#000000" points="4.5,-460 4.5,-480 67.5,-480 67.5,-460 4.5,-460"/>
<text text-anchor="start" x="9.5" y="-466.9" font-family="Times,serif" font-size="9.00" fill="#000000">date: Date</text>
<polygon fill="none" stroke="#000000" points="4.5,-440 4.5,-460 67.5,-460 67.5,-440 4.5,-440"/>
<text text-anchor="start" x="9.5" y="-446.9" font-family="Times,serif" font-size="9.00" fill="#000000">userId: String</text>
<polygon fill="none" stroke="#000000" points="4.5,-420 4.5,-440 67.5,-440 67.5,-420 4.5,-420"/>
<text text-anchor="start" x="9.5" y="-426.9" font-family="Times,serif" font-size="9.00" fill="#000000">_id: ObjectID</text>
<polygon fill="none" stroke="#000000" points="4.5,-400 4.5,-420 67.5,-420 67.5,-400 4.5,-400"/>
<text text-anchor="start" x="9.5" y="-406.9" font-family="Times,serif" font-size="9.00" fill="#000000">__v: Number</text>
</g>
<!-- users -->
<g id="node4" class="node">
<title>users</title>
<polygon fill="#4477c9" stroke="transparent" points="0,-590 0,-728 71,-728 71,-590 0,-590"/>
<polygon fill="#add8e6" stroke="transparent" points=".5,-710 .5,-728 71.5,-728 71.5,-710 .5,-710"/>
<polygon fill="none" stroke="#000000" points=".5,-710 .5,-728 71.5,-728 71.5,-710 .5,-710"/>
<text text-anchor="start" x="24.5043" y="-716.9" font-family="Times,serif" font-weight="bold" font-style="italic" font-size="9.00" fill="#000000"> users </text>
<polygon fill="none" stroke="#000000" points=".5,-690 .5,-710 71.5,-710 71.5,-690 .5,-690"/>
<text text-anchor="start" x="5.3825" y="-696.9" font-family="Times,serif" font-size="9.00" fill="#000000">username: String</text>
<polygon fill="none" stroke="#000000" points=".5,-670 .5,-690 71.5,-690 71.5,-670 .5,-670"/>
<text text-anchor="start" x="5.5" y="-676.9" font-family="Times,serif" font-size="9.00" fill="#000000">email: String</text>
<polygon fill="none" stroke="#000000" points=".5,-650 .5,-670 71.5,-670 71.5,-650 .5,-650"/>
<text text-anchor="start" x="5.5" y="-656.9" font-family="Times,serif" font-size="9.00" fill="#000000">password: String</text>
<polygon fill="none" stroke="#000000" points=".5,-630 .5,-650 71.5,-650 71.5,-630 .5,-630"/>
<text text-anchor="start" x="5.5" y="-636.9" font-family="Times,serif" font-size="9.00" fill="#000000">createdAt: Date</text>
<polygon fill="none" stroke="#000000" points=".5,-610 .5,-630 71.5,-630 71.5,-610 .5,-610"/>
<text text-anchor="start" x="5.5" y="-616.9" font-family="Times,serif" font-size="9.00" fill="#000000">_id: ObjectID</text>
<polygon fill="none" stroke="#000000" points=".5,-590 .5,-610 71.5,-610 71.5,-590 .5,-590"/>
<text text-anchor="start" x="5.5" y="-596.9" font-family="Times,serif" font-size="9.00" fill="#000000">__v: Number</text>
</g>
</g>
</svg>
